<?xml version="1.0" encoding="UTF-8" standalone="no"?>
<!-- Created with Inkscape (http://www.inkscape.org/) -->
<svg width="420" height="373" version="1.0" viewBox="0 0 413.435 365.722" xml:space="preserve" xmlns="http://www.w3.org/2000/svg"><defs>
	
<radialGradient id="radialGradient5217" cx="173.78099" cy="150.8327" r="206.90388" gradientTransform="matrix(-.6101056 .6619819 -.6829184 -.6294014 402.98608 80.149634)" gradientUnits="userSpaceOnUse"><stop stop-color="#fff" stop-opacity=".62886596" offset="0"/><stop stop-color="#fff" stop-opacity="0" offset="1"/></radialGradient>
	
</defs>
<path d="m222.26365 25.584927s-5.08917-11.009168-15.54612-11.008183c-10.45694 0-15.55891 11.007199-15.55891 11.007199l-173.398344 300.352227s-6.988026 9.9116-1.76005 18.96877c5.228962 9.05618 17.313059 7.96944 17.313059 7.96944l346.812425 0.0108s12.07819 1.09659 17.30617-7.95958c5.22896-9.05521-1.75316-18.97665-1.75316-18.97665z" fill="#ff0" stroke="#df1800" stroke-linecap="round" stroke-linejoin="round" stroke-width="21.6560879"/>
<path d="m242.83732 138.13685c-1.03034 4.04893-19.71542 77.84991-22.03608 86.52577-2.31969 8.67678-4.5118 16.8988-6.57922 24.66516 0 0-1.07382 4.89998-6.69134 4.89998h-1.69337c-5.61751 0-6.69134-4.89998-6.69134-4.89998-2.06742-7.76636-4.25855-15.98838-6.57921-24.66516-2.31969-8.67586-21.00188-82.47684-22.03511-86.52577-13.23865-51.86614 85.91354-53.300703 72.30567 0z"/><circle cx="206.7175" cy="301.47748" r="25.593596"/>
<g transform="translate(-.70632766)"><path d="m207.42187 3.7486992c-16.63266 0-23.8644 14.1152908-24.94757 16.4266348l-173.402518 300.355186h0.030761c-1.4836084 2.12838-10.0855663 15.39543-1.7841664 29.77712 8.3221269 14.41332 24.1723809 13.59831 26.7009729 13.38125 0.0415-4e-3 0.150685 3e-3 0.184569 0l346.620471 0.0308v-0.0308c2.57607 0.22046 18.3955 1.03671 26.70097-13.35049 8.33158-14.42812-0.34665-27.75027-1.78416-29.80788h0.0308l-173.31027-300.139855-0.12305-0.215331c-1.09705-2.341335-8.30365-16.4281987-24.91681-16.4266348z" fill="url(#radialGradient5217)"/></g></svg>
